<svg xmlns="http://www.w3.org/2000/svg" width="965" height="243" fill="none"><path fill="#FF3880" d="m848.71 74.95-37.475-37.475L848.71 0l37.475 37.475L848.71 74.95Z"/><path fill="#0c0048" d="M285.761 160.371h45.045v20.881h-73.981v-19.39l44.746-64.435h-44.746V76.545h73.981v19.39l-45.045 64.436Zm143.89-62.347v83.228h-25.505v-11.335c-2.586 3.679-6.116 6.662-10.59 8.949-4.376 2.188-9.248 3.281-14.618 3.281-6.363 0-11.982-1.392-16.854-4.176-4.872-2.884-8.651-7.01-11.336-12.38-2.685-5.369-4.027-11.684-4.027-18.943V98.024h25.356v45.194c0 5.568 1.442 9.894 4.326 12.976 2.884 3.083 6.762 4.624 11.634 4.624 4.972 0 8.9-1.541 11.783-4.624 2.884-3.082 4.326-7.408 4.326-12.976V98.024h25.505Zm43.826 11.783c2.387-3.878 5.817-7.01 10.292-9.397 4.475-2.386 9.596-3.58 15.363-3.58 6.861 0 13.076 1.74 18.644 5.221 5.569 3.48 9.944 8.452 13.126 14.916 3.282 6.463 4.922 13.97 4.922 22.522 0 8.552-1.64 16.109-4.922 22.672-3.182 6.463-7.557 11.485-13.126 15.064-5.568 3.481-11.783 5.221-18.644 5.221-5.867 0-10.988-1.144-15.363-3.431-4.375-2.386-7.806-5.519-10.292-9.397v11.634h-25.505V70.877h25.505v38.93Zm36.394 29.682c0-6.364-1.79-11.336-5.369-14.916-3.481-3.679-7.806-5.518-12.977-5.518-5.071 0-9.397 1.839-12.976 5.518-3.481 3.68-5.221 8.701-5.221 15.065 0 6.364 1.74 11.386 5.221 15.065 3.579 3.679 7.905 5.519 12.976 5.519 5.071 0 9.397-1.84 12.977-5.519 3.579-3.779 5.369-8.85 5.369-15.214Zm124.353-41.465-52.205 122.755h-27.444l19.092-42.361-33.859-80.394h28.489l19.241 52.055 19.092-52.055h27.594Zm34.728-27.147v110.375h-25.505V70.877h25.505Zm13.413 68.612c0-8.552 1.591-16.059 4.773-22.522 3.281-6.464 7.706-11.436 13.274-14.916 5.569-3.48 11.784-5.22 18.645-5.22 5.867 0 10.988 1.193 15.363 3.579 4.475 2.387 7.905 5.519 10.292 9.397V98.024h25.505v83.228h-25.505v-11.783c-2.486 3.878-5.967 7.01-10.441 9.397-4.376 2.386-9.497 3.58-15.363 3.58-6.762 0-12.927-1.74-18.496-5.221-5.568-3.579-9.993-8.601-13.274-15.064-3.182-6.563-4.773-14.12-4.773-22.672Zm62.347.149c0-6.364-1.79-11.385-5.37-15.065-3.48-3.679-7.756-5.518-12.827-5.518-5.072 0-9.397 1.839-12.977 5.518-3.48 3.58-5.22 8.552-5.22 14.916 0 6.364 1.74 11.435 5.22 15.214 3.58 3.679 7.905 5.519 12.977 5.519 5.071 0 9.347-1.84 12.827-5.519 3.58-3.679 5.37-8.701 5.37-15.065Zm94.819 41.614-25.356-34.902v34.902h-25.506V70.877h25.506v61.005l25.207-33.858h31.472l-34.604 41.763 34.902 41.465h-31.621Zm119.796-42.956c0 2.386-.149 4.872-.447 7.457h-57.723c.398 5.171 2.038 9.149 4.922 11.933 2.983 2.685 6.613 4.027 10.888 4.027 6.364 0 10.789-2.685 13.275-8.054h27.146c-1.392 5.469-3.927 10.391-7.607 14.766-3.579 4.375-8.104 7.806-13.573 10.292-5.469 2.486-11.584 3.729-18.346 3.729-8.154 0-15.412-1.74-21.776-5.221-6.364-3.48-11.336-8.452-14.916-14.915-3.58-6.464-5.37-14.021-5.37-22.672s1.741-16.208 5.221-22.671c3.58-6.464 8.551-11.436 14.915-14.916 6.364-3.48 13.673-5.22 21.926-5.22 8.055 0 15.214 1.69 21.479 5.071 6.264 3.381 11.137 8.203 14.617 14.468 3.58 6.264 5.369 13.573 5.369 21.926Zm-26.102-6.712c0-4.375-1.491-7.856-4.474-10.441-2.984-2.586-6.712-3.878-11.187-3.878-4.276 0-7.905 1.243-10.888 3.729-2.884 2.486-4.674 6.016-5.37 10.59h31.919Z"/><path fill="#3333E4" d="m111.619 130.76-55.81-55.81 55.81-55.81 55.81 55.81-55.81 55.81Z"/><path fill="#1158FF" d="m167.429 186.569-55.81-55.809 55.81-55.81 55.809 55.81-55.809 55.809Z"/><path fill="#00C7FF" d="m111.619 242.379-55.81-55.81 55.81-55.809 55.81 55.809-55.81 55.81Z"/><path fill="#26FFFF" d="M55.81 186.569 0 130.76l55.81-55.81 55.809 55.81-55.81 55.809Z"/></svg>